<svg xmlns="http://www.w3.org/2000/svg" xmlns:xlink="http://www.w3.org/1999/xlink" width="200" zoomAndPan="magnify" viewBox="0 0 150 149.999998" height="200" preserveAspectRatio="xMidYMid meet" version="1.0"><defs><g/><clipPath id="fc20cdb1ec"><path d="M 2 2.25 L 147 2.25 L 147 147 L 2 147 Z M 2 2.25 " clip-rule="nonzero"/></clipPath></defs><g clip-path="url(#fc20cdb1ec)"><path fill="#000000" d="M 74.859375 2.28125 C 73.679688 2.28125 72.5 2.3125 71.320312 2.367188 C 70.144531 2.425781 68.964844 2.511719 67.792969 2.628906 C 66.617188 2.746094 65.445312 2.890625 64.28125 3.0625 C 63.113281 3.234375 61.949219 3.4375 60.792969 3.667969 C 59.636719 3.898438 58.484375 4.15625 57.339844 4.441406 C 56.195312 4.730469 55.058594 5.042969 53.929688 5.386719 C 52.796875 5.730469 51.679688 6.097656 50.566406 6.496094 C 49.457031 6.894531 48.355469 7.320312 47.265625 7.769531 C 46.175781 8.222656 45.097656 8.699219 44.03125 9.203125 C 42.960938 9.710938 41.910156 10.238281 40.867188 10.796875 C 39.828125 11.351562 38.800781 11.933594 37.789062 12.539062 C 36.777344 13.148438 35.78125 13.777344 34.796875 14.433594 C 33.816406 15.089844 32.851562 15.769531 31.90625 16.472656 C 30.957031 17.175781 30.027344 17.902344 29.113281 18.648438 C 28.203125 19.398438 27.308594 20.167969 26.433594 20.960938 C 25.558594 21.753906 24.707031 22.566406 23.871094 23.402344 C 23.035156 24.238281 22.222656 25.089844 21.429688 25.964844 C 20.636719 26.839844 19.867188 27.734375 19.117188 28.644531 C 18.371094 29.558594 17.644531 30.488281 16.941406 31.433594 C 16.238281 32.382812 15.558594 33.347656 14.902344 34.328125 C 14.246094 35.308594 13.617188 36.308594 13.011719 37.320312 C 12.402344 38.332031 11.820312 39.359375 11.265625 40.398438 C 10.710938 41.441406 10.179688 42.492188 9.675781 43.558594 C 9.167969 44.625 8.691406 45.707031 8.238281 46.796875 C 7.789062 47.886719 7.363281 48.988281 6.964844 50.097656 C 6.570312 51.207031 6.199219 52.328125 5.855469 53.457031 C 5.511719 54.585938 5.199219 55.726562 4.910156 56.871094 C 4.625 58.015625 4.367188 59.164062 4.136719 60.324219 C 3.90625 61.480469 3.703125 62.644531 3.53125 63.808594 C 3.359375 64.976562 3.214844 66.148438 3.097656 67.324219 C 2.980469 68.496094 2.894531 69.671875 2.835938 70.851562 C 2.78125 72.03125 2.75 73.210938 2.75 74.390625 C 2.75 75.570312 2.78125 76.75 2.835938 77.929688 C 2.894531 79.109375 2.980469 80.285156 3.097656 81.457031 C 3.214844 82.632812 3.359375 83.804688 3.53125 84.972656 C 3.703125 86.136719 3.90625 87.300781 4.136719 88.457031 C 4.367188 89.617188 4.625 90.765625 4.910156 91.910156 C 5.199219 93.054688 5.511719 94.191406 5.855469 95.324219 C 6.199219 96.453125 6.566406 97.570312 6.964844 98.683594 C 7.363281 99.792969 7.789062 100.894531 8.238281 101.984375 C 8.691406 103.074219 9.167969 104.152344 9.671875 105.222656 C 10.179688 106.289062 10.707031 107.339844 11.265625 108.382812 C 11.820312 109.421875 12.402344 110.449219 13.007812 111.460938 C 13.617188 112.472656 14.246094 113.472656 14.902344 114.453125 C 15.558594 115.433594 16.238281 116.398438 16.941406 117.34375 C 17.644531 118.292969 18.371094 119.222656 19.117188 120.136719 C 19.867188 121.046875 20.636719 121.941406 21.429688 122.816406 C 22.222656 123.691406 23.035156 124.542969 23.871094 125.378906 C 24.707031 126.214844 25.558594 127.027344 26.433594 127.820312 C 27.308594 128.613281 28.203125 129.382812 29.113281 130.132812 C 30.027344 130.878906 30.957031 131.605469 31.902344 132.308594 C 32.851562 133.011719 33.816406 133.691406 34.796875 134.347656 C 35.777344 135.003906 36.777344 135.632812 37.789062 136.242188 C 38.800781 136.847656 39.828125 137.429688 40.867188 137.984375 C 41.910156 138.542969 42.960938 139.070312 44.027344 139.574219 C 45.09375 140.082031 46.175781 140.558594 47.265625 141.011719 C 48.355469 141.460938 49.457031 141.886719 50.566406 142.285156 C 51.675781 142.679688 52.796875 143.050781 53.925781 143.394531 C 55.054688 143.738281 56.195312 144.050781 57.339844 144.339844 C 58.484375 144.625 59.632812 144.882812 60.792969 145.113281 C 61.949219 145.34375 63.113281 145.546875 64.277344 145.71875 C 65.445312 145.890625 66.617188 146.035156 67.792969 146.152344 C 68.964844 146.269531 70.140625 146.355469 71.320312 146.414062 C 72.5 146.46875 73.679688 146.5 74.859375 146.5 C 76.039062 146.5 77.21875 146.46875 78.398438 146.414062 C 79.578125 146.355469 80.753906 146.269531 81.925781 146.152344 C 83.101562 146.035156 84.273438 145.890625 85.441406 145.71875 C 86.605469 145.546875 87.769531 145.34375 88.925781 145.113281 C 90.085938 144.882812 91.234375 144.625 92.378906 144.339844 C 93.523438 144.050781 94.660156 143.738281 95.792969 143.394531 C 96.921875 143.050781 98.039062 142.683594 99.152344 142.285156 C 100.261719 141.886719 101.363281 141.460938 102.453125 141.011719 C 103.542969 140.558594 104.621094 140.082031 105.691406 139.574219 C 106.757812 139.070312 107.808594 138.542969 108.851562 137.984375 C 109.890625 137.429688 110.917969 136.847656 111.929688 136.242188 C 112.941406 135.632812 113.941406 135.003906 114.921875 134.347656 C 115.902344 133.691406 116.867188 133.011719 117.8125 132.308594 C 118.761719 131.605469 119.691406 130.878906 120.605469 130.132812 C 121.515625 129.382812 122.410156 128.613281 123.285156 127.820312 C 124.160156 127.027344 125.011719 126.214844 125.847656 125.378906 C 126.683594 124.542969 127.496094 123.691406 128.289062 122.816406 C 129.082031 121.941406 129.851562 121.046875 130.601562 120.136719 C 131.347656 119.222656 132.074219 118.292969 132.777344 117.34375 C 133.480469 116.398438 134.160156 115.433594 134.816406 114.453125 C 135.472656 113.46875 136.101562 112.472656 136.710938 111.460938 C 137.316406 110.449219 137.898438 109.421875 138.453125 108.382812 C 139.011719 107.339844 139.539062 106.289062 140.042969 105.222656 C 140.550781 104.152344 141.027344 103.074219 141.480469 101.984375 C 141.929688 100.894531 142.355469 99.792969 142.753906 98.683594 C 143.148438 97.570312 143.519531 96.453125 143.863281 95.320312 C 144.207031 94.191406 144.519531 93.054688 144.808594 91.910156 C 145.09375 90.765625 145.351562 89.613281 145.582031 88.457031 C 145.8125 87.300781 146.015625 86.136719 146.1875 84.96875 C 146.359375 83.804688 146.503906 82.632812 146.621094 81.457031 C 146.738281 80.285156 146.824219 79.105469 146.882812 77.929688 C 146.9375 76.75 146.96875 75.570312 146.96875 74.390625 C 146.964844 73.210938 146.9375 72.03125 146.878906 70.851562 C 146.816406 69.675781 146.730469 68.5 146.613281 67.324219 C 146.496094 66.152344 146.351562 64.980469 146.175781 63.8125 C 146.003906 62.648438 145.800781 61.484375 145.570312 60.328125 C 145.335938 59.171875 145.078125 58.019531 144.789062 56.875 C 144.503906 55.730469 144.1875 54.597656 143.84375 53.46875 C 143.5 52.339844 143.128906 51.21875 142.734375 50.109375 C 142.335938 48.996094 141.910156 47.898438 141.457031 46.808594 C 141.003906 45.71875 140.527344 44.640625 140.023438 43.574219 C 139.515625 42.507812 138.984375 41.453125 138.429688 40.414062 C 137.871094 39.375 137.292969 38.347656 136.683594 37.335938 C 136.078125 36.324219 135.445312 35.328125 134.789062 34.347656 C 134.136719 33.367188 133.457031 32.402344 132.753906 31.457031 C 132.050781 30.507812 131.324219 29.578125 130.574219 28.667969 C 129.828125 27.753906 129.054688 26.863281 128.265625 25.988281 C 127.472656 25.113281 126.660156 24.261719 125.824219 23.425781 C 124.988281 22.589844 124.136719 21.777344 123.261719 20.984375 C 122.386719 20.195312 121.496094 19.421875 120.582031 18.675781 C 119.671875 17.925781 118.742188 17.199219 117.792969 16.496094 C 116.847656 15.792969 115.882812 15.113281 114.902344 14.460938 C 113.921875 13.804688 112.925781 13.171875 111.914062 12.566406 C 110.902344 11.957031 109.875 11.378906 108.835938 10.820312 C 107.796875 10.265625 106.742188 9.734375 105.675781 9.226562 C 104.609375 8.722656 103.53125 8.246094 102.441406 7.792969 C 101.351562 7.339844 100.253906 6.914062 99.140625 6.515625 C 98.03125 6.121094 96.910156 5.75 95.78125 5.40625 C 94.652344 5.0625 93.519531 4.746094 92.375 4.460938 C 91.230469 4.171875 90.078125 3.914062 88.921875 3.679688 C 87.765625 3.449219 86.601562 3.246094 85.4375 3.074219 C 84.269531 2.898438 83.097656 2.753906 81.925781 2.636719 C 80.75 2.519531 79.574219 2.433594 78.398438 2.371094 C 77.21875 2.3125 76.039062 2.285156 74.859375 2.28125 Z M 74.859375 140.144531 C 73.785156 140.144531 72.707031 140.117188 71.632812 140.0625 C 70.558594 140.011719 69.484375 139.933594 68.414062 139.828125 C 67.34375 139.722656 66.277344 139.589844 65.210938 139.429688 C 64.148438 139.273438 63.085938 139.089844 62.03125 138.878906 C 60.976562 138.671875 59.925781 138.433594 58.882812 138.171875 C 57.839844 137.910156 56.800781 137.625 55.773438 137.3125 C 54.742188 137 53.722656 136.664062 52.707031 136.300781 C 51.695312 135.9375 50.691406 135.550781 49.699219 135.136719 C 48.703125 134.726562 47.71875 134.289062 46.746094 133.832031 C 45.773438 133.371094 44.8125 132.886719 43.863281 132.378906 C 42.914062 131.871094 41.980469 131.34375 41.054688 130.789062 C 40.132812 130.234375 39.222656 129.660156 38.328125 129.0625 C 37.433594 128.464844 36.554688 127.84375 35.691406 127.203125 C 34.828125 126.5625 33.976562 125.902344 33.148438 125.21875 C 32.316406 124.535156 31.5 123.832031 30.703125 123.109375 C 29.90625 122.386719 29.125 121.644531 28.367188 120.886719 C 27.605469 120.125 26.863281 119.34375 26.140625 118.546875 C 25.417969 117.75 24.714844 116.933594 24.03125 116.105469 C 23.347656 115.273438 22.6875 114.421875 22.046875 113.558594 C 21.40625 112.695312 20.785156 111.816406 20.1875 110.921875 C 19.589844 110.027344 19.015625 109.117188 18.460938 108.195312 C 17.910156 107.269531 17.378906 106.335938 16.871094 105.386719 C 16.363281 104.4375 15.878906 103.476562 15.417969 102.503906 C 14.960938 101.53125 14.523438 100.546875 14.113281 99.554688 C 13.699219 98.558594 13.3125 97.554688 12.949219 96.542969 C 12.585938 95.527344 12.25 94.507812 11.9375 93.476562 C 11.625 92.449219 11.339844 91.410156 11.078125 90.367188 C 10.816406 89.324219 10.578125 88.273438 10.371094 87.21875 C 10.160156 86.164062 9.976562 85.101562 9.816406 84.039062 C 9.660156 82.972656 9.527344 81.90625 9.421875 80.835938 C 9.316406 79.765625 9.238281 78.691406 9.1875 77.617188 C 9.132812 76.542969 9.105469 75.464844 9.105469 74.390625 C 9.105469 73.316406 9.132812 72.238281 9.1875 71.164062 C 9.238281 70.089844 9.316406 69.015625 9.421875 67.945312 C 9.527344 66.875 9.660156 65.808594 9.816406 64.742188 C 9.976562 63.679688 10.160156 62.617188 10.371094 61.5625 C 10.578125 60.507812 10.816406 59.457031 11.078125 58.414062 C 11.339844 57.371094 11.625 56.332031 11.9375 55.304688 C 12.25 54.273438 12.585938 53.253906 12.949219 52.238281 C 13.3125 51.226562 13.699219 50.222656 14.113281 49.226562 C 14.523438 48.234375 14.960938 47.25 15.417969 46.277344 C 15.878906 45.304688 16.363281 44.34375 16.871094 43.394531 C 17.378906 42.445312 17.90625 41.511719 18.460938 40.585938 C 19.015625 39.664062 19.589844 38.753906 20.1875 37.859375 C 20.785156 36.964844 21.40625 36.085938 22.046875 35.222656 C 22.6875 34.355469 23.347656 33.507812 24.03125 32.675781 C 24.714844 31.84375 25.417969 31.03125 26.140625 30.234375 C 26.863281 29.4375 27.605469 28.65625 28.363281 27.894531 C 29.125 27.136719 29.90625 26.394531 30.703125 25.671875 C 31.5 24.949219 32.3125 24.246094 33.144531 23.5625 C 33.976562 22.878906 34.828125 22.21875 35.691406 21.578125 C 36.554688 20.9375 37.433594 20.316406 38.328125 19.71875 C 39.222656 19.121094 40.132812 18.546875 41.054688 17.992188 C 41.980469 17.4375 42.914062 16.910156 43.863281 16.402344 C 44.8125 15.894531 45.773438 15.410156 46.746094 14.949219 C 47.71875 14.492188 48.703125 14.054688 49.695312 13.644531 C 50.691406 13.230469 51.695312 12.84375 52.707031 12.480469 C 53.722656 12.117188 54.742188 11.78125 55.773438 11.46875 C 56.800781 11.15625 57.839844 10.871094 58.882812 10.609375 C 59.925781 10.347656 60.976562 10.109375 62.03125 9.902344 C 63.085938 9.691406 64.148438 9.507812 65.210938 9.347656 C 66.277344 9.191406 67.34375 9.058594 68.414062 8.953125 C 69.484375 8.847656 70.558594 8.769531 71.632812 8.71875 C 72.707031 8.664062 73.785156 8.636719 74.859375 8.636719 C 75.933594 8.636719 77.011719 8.664062 78.085938 8.71875 C 79.160156 8.769531 80.234375 8.847656 81.304688 8.953125 C 82.375 9.058594 83.441406 9.191406 84.507812 9.347656 C 85.570312 9.507812 86.632812 9.691406 87.6875 9.902344 C 88.742188 10.109375 89.792969 10.347656 90.835938 10.609375 C 91.878906 10.871094 92.917969 11.15625 93.945312 11.46875 C 94.976562 11.78125 95.996094 12.117188 97.011719 12.480469 C 98.023438 12.84375 99.027344 13.230469 100.023438 13.644531 C 101.015625 14.054688 102 14.492188 102.972656 14.949219 C 103.945312 15.410156 104.90625 15.894531 105.855469 16.402344 C 106.804688 16.910156 107.738281 17.4375 108.664062 17.992188 C 109.585938 18.546875 110.496094 19.121094 111.390625 19.71875 C 112.285156 20.316406 113.164062 20.9375 114.027344 21.578125 C 114.890625 22.21875 115.742188 22.878906 116.574219 23.5625 C 117.402344 24.246094 118.21875 24.949219 119.015625 25.671875 C 119.8125 26.394531 120.59375 27.136719 121.355469 27.894531 C 122.113281 28.65625 122.855469 29.4375 123.578125 30.234375 C 124.300781 31.03125 125.003906 31.84375 125.6875 32.675781 C 126.371094 33.507812 127.03125 34.355469 127.671875 35.222656 C 128.3125 36.085938 128.933594 36.964844 129.53125 37.859375 C 130.128906 38.753906 130.703125 39.664062 131.257812 40.585938 C 131.8125 41.507812 132.339844 42.445312 132.847656 43.394531 C 133.355469 44.34375 133.839844 45.304688 134.300781 46.277344 C 134.757812 47.25 135.195312 48.234375 135.605469 49.226562 C 136.019531 50.222656 136.40625 51.226562 136.769531 52.238281 C 137.132812 53.25 137.46875 54.273438 137.78125 55.304688 C 138.09375 56.332031 138.378906 57.371094 138.640625 58.414062 C 138.902344 59.457031 139.140625 60.507812 139.347656 61.5625 C 139.558594 62.617188 139.742188 63.675781 139.902344 64.742188 C 140.058594 65.804688 140.191406 66.875 140.296875 67.945312 C 140.402344 69.015625 140.480469 70.089844 140.53125 71.164062 C 140.585938 72.238281 140.613281 73.3125 140.613281 74.390625 C 140.609375 75.464844 140.582031 76.539062 140.53125 77.613281 C 140.476562 78.691406 140.394531 79.761719 140.289062 80.832031 C 140.183594 81.902344 140.050781 82.96875 139.890625 84.035156 C 139.730469 85.097656 139.546875 86.15625 139.335938 87.210938 C 139.125 88.265625 138.890625 89.316406 138.628906 90.359375 C 138.363281 91.402344 138.078125 92.441406 137.765625 93.46875 C 137.453125 94.496094 137.113281 95.519531 136.75 96.53125 C 136.386719 97.542969 136 98.546875 135.585938 99.539062 C 135.175781 100.535156 134.738281 101.519531 134.277344 102.488281 C 133.820312 103.460938 133.335938 104.421875 132.828125 105.371094 C 132.320312 106.320312 131.789062 107.253906 131.234375 108.175781 C 130.683594 109.101562 130.105469 110.007812 129.507812 110.902344 C 128.910156 111.796875 128.292969 112.675781 127.652344 113.539062 C 127.007812 114.402344 126.347656 115.25 125.664062 116.082031 C 124.984375 116.914062 124.28125 117.730469 123.558594 118.527344 C 122.835938 119.324219 122.09375 120.101562 121.332031 120.863281 C 120.570312 121.625 119.792969 122.363281 118.996094 123.085938 C 118.199219 123.808594 117.386719 124.511719 116.554688 125.195312 C 115.722656 125.878906 114.875 126.539062 114.011719 127.179688 C 113.144531 127.820312 112.265625 128.441406 111.371094 129.039062 C 110.480469 129.636719 109.570312 130.210938 108.648438 130.765625 C 107.726562 131.320312 106.789062 131.851562 105.839844 132.355469 C 104.894531 132.863281 103.933594 133.347656 102.960938 133.808594 C 101.988281 134.269531 101.003906 134.707031 100.011719 135.117188 C 99.019531 135.53125 98.015625 135.917969 97 136.28125 C 95.988281 136.644531 94.96875 136.980469 93.9375 137.296875 C 92.910156 137.609375 91.875 137.894531 90.832031 138.160156 C 89.785156 138.421875 88.738281 138.65625 87.683594 138.867188 C 86.628906 139.078125 85.570312 139.261719 84.503906 139.421875 C 83.441406 139.582031 82.375 139.714844 81.304688 139.820312 C 80.230469 139.925781 79.160156 140.007812 78.085938 140.0625 C 77.011719 140.113281 75.9375 140.140625 74.859375 140.144531 Z M 74.859375 140.144531 " fill-opacity="1" fill-rule="nonzero"/></g><path fill="#000000" d="M 78.039062 75.125 L 78.039062 28.023438 C 78.039062 27.605469 77.957031 27.199219 77.796875 26.808594 C 77.636719 26.417969 77.40625 26.074219 77.105469 25.777344 C 76.808594 25.480469 76.464844 25.25 76.078125 25.089844 C 75.6875 24.929688 75.28125 24.847656 74.859375 24.847656 C 74.4375 24.847656 74.035156 24.929688 73.644531 25.089844 C 73.253906 25.25 72.910156 25.480469 72.613281 25.777344 C 72.316406 26.074219 72.085938 26.417969 71.925781 26.808594 C 71.761719 27.199219 71.683594 27.605469 71.683594 28.023438 L 71.683594 76.441406 C 71.683594 77.320312 71.992188 78.066406 72.613281 78.6875 L 100.105469 106.179688 C 100.402344 106.476562 100.746094 106.707031 101.136719 106.867188 C 101.523438 107.027344 101.929688 107.109375 102.351562 107.109375 C 102.773438 107.109375 103.175781 107.027344 103.566406 106.867188 C 103.957031 106.707031 104.300781 106.476562 104.597656 106.179688 C 104.894531 105.878906 105.125 105.539062 105.285156 105.148438 C 105.449219 104.757812 105.527344 104.351562 105.527344 103.933594 C 105.527344 103.511719 105.449219 103.105469 105.285156 102.714844 C 105.125 102.328125 104.894531 101.984375 104.597656 101.683594 Z M 78.039062 75.125 " fill-opacity="1" fill-rule="nonzero"/><g fill="#000000" fill-opacity="1"><g transform="translate(33.895391, 85.588081)"><g><path d="M 4.671875 -0.640625 L 3.640625 -0.5 L 2.75 -2.65625 C 2.71875 -2.738281 2.660156 -2.894531 2.578125 -3.125 C 2.492188 -3.363281 2.441406 -3.523438 2.421875 -3.609375 C 2.421875 -3.503906 2.410156 -3.332031 2.390625 -3.09375 C 2.378906 -2.863281 2.367188 -2.703125 2.359375 -2.609375 L 2.109375 -0.296875 L 1.078125 -0.15625 L -0.59375 -4.234375 L 0.28125 -4.359375 L 1.15625 -2.140625 C 1.3125 -1.710938 1.4375 -1.351562 1.53125 -1.0625 C 1.519531 -1.15625 1.519531 -1.320312 1.53125 -1.5625 C 1.539062 -1.800781 1.550781 -1.988281 1.5625 -2.125 L 1.859375 -4.578125 L 2.703125 -4.6875 L 3.65625 -2.421875 C 3.707031 -2.304688 3.769531 -2.140625 3.84375 -1.921875 C 3.914062 -1.710938 3.96875 -1.535156 4 -1.390625 C 4 -1.535156 4.003906 -1.722656 4.015625 -1.953125 C 4.023438 -2.191406 4.035156 -2.382812 4.046875 -2.53125 L 4.265625 -4.90625 L 5.15625 -5.03125 Z M 4.671875 -0.640625 "/></g></g><g transform="translate(39.641571, 84.794062)"><g><path d="M 3.125 -0.4375 L 2.671875 -1.390625 L 1.140625 -1.171875 L 0.96875 -0.140625 L 0 0 L 0.90625 -4.453125 L 2 -4.609375 L 4.109375 -0.5625 Z M 2.359375 -2.125 C 1.953125 -3 1.722656 -3.492188 1.671875 -3.609375 C 1.617188 -3.722656 1.582031 -3.816406 1.5625 -3.890625 C 1.519531 -3.628906 1.414062 -2.988281 1.25 -1.96875 Z M 2.359375 -2.125 "/></g></g><g transform="translate(43.742255, 84.227421)"><g><path d="M 2.171875 -0.296875 L 1.265625 -0.171875 L 0.78125 -3.671875 L -0.359375 -3.515625 L -0.46875 -4.25 L 2.734375 -4.6875 L 2.84375 -3.953125 L 1.6875 -3.796875 Z M 2.171875 -0.296875 "/></g></g><g transform="translate(47.184159, 83.751812)"><g><path d="M 1.859375 -3.890625 C 1.515625 -3.835938 1.265625 -3.664062 1.109375 -3.375 C 0.953125 -3.09375 0.90625 -2.726562 0.96875 -2.28125 C 1.101562 -1.34375 1.53125 -0.925781 2.25 -1.03125 C 2.539062 -1.070312 2.890625 -1.1875 3.296875 -1.375 L 3.40625 -0.625 C 3.070312 -0.4375 2.695312 -0.3125 2.28125 -0.25 C 1.65625 -0.164062 1.148438 -0.285156 0.765625 -0.609375 C 0.390625 -0.941406 0.148438 -1.460938 0.046875 -2.171875 C -0.00390625 -2.597656 0.0234375 -2.988281 0.140625 -3.34375 C 0.253906 -3.707031 0.445312 -3.992188 0.71875 -4.203125 C 1 -4.421875 1.34375 -4.5625 1.75 -4.625 C 2.15625 -4.675781 2.582031 -4.640625 3.03125 -4.515625 L 2.828125 -3.734375 C 2.660156 -3.785156 2.492188 -3.828125 2.328125 -3.859375 C 2.160156 -3.898438 2.003906 -3.910156 1.859375 -3.890625 Z M 1.859375 -3.890625 "/></g></g><g transform="translate(50.971414, 83.228481)"><g><path d="M 4.015625 -0.546875 L 3.109375 -0.4375 L 2.859375 -2.265625 L 1.1875 -2.03125 L 1.4375 -0.203125 L 0.546875 -0.078125 L -0.046875 -4.3125 L 0.84375 -4.4375 L 1.078125 -2.78125 L 2.75 -3.015625 L 2.515625 -4.671875 L 3.421875 -4.78125 Z M 4.015625 -0.546875 "/></g></g><g transform="translate(55.519023, 82.600083)"><g><path d="M 2.875 -1.59375 C 2.925781 -1.21875 2.832031 -0.898438 2.59375 -0.640625 C 2.351562 -0.378906 1.984375 -0.210938 1.484375 -0.140625 C 1.035156 -0.078125 0.625 -0.109375 0.25 -0.234375 L 0.140625 -1.0625 C 0.441406 -0.96875 0.691406 -0.910156 0.890625 -0.890625 C 1.097656 -0.867188 1.285156 -0.875 1.453125 -0.90625 C 1.648438 -0.925781 1.796875 -0.976562 1.890625 -1.0625 C 1.984375 -1.15625 2.019531 -1.273438 2 -1.421875 C 1.988281 -1.503906 1.953125 -1.578125 1.890625 -1.640625 C 1.835938 -1.703125 1.757812 -1.753906 1.65625 -1.796875 C 1.5625 -1.847656 1.367188 -1.921875 1.078125 -2.015625 C 0.796875 -2.097656 0.582031 -2.1875 0.4375 -2.28125 C 0.300781 -2.382812 0.179688 -2.503906 0.078125 -2.640625 C -0.015625 -2.773438 -0.0703125 -2.941406 -0.09375 -3.140625 C -0.144531 -3.515625 -0.0625 -3.828125 0.15625 -4.078125 C 0.375 -4.328125 0.710938 -4.484375 1.171875 -4.546875 C 1.390625 -4.566406 1.597656 -4.566406 1.796875 -4.546875 C 2.003906 -4.523438 2.226562 -4.488281 2.46875 -4.4375 L 2.265625 -3.6875 C 2.023438 -3.75 1.832031 -3.785156 1.6875 -3.796875 C 1.539062 -3.816406 1.394531 -3.816406 1.25 -3.796875 C 1.070312 -3.773438 0.941406 -3.71875 0.859375 -3.625 C 0.785156 -3.53125 0.753906 -3.421875 0.765625 -3.296875 C 0.773438 -3.210938 0.800781 -3.144531 0.84375 -3.09375 C 0.894531 -3.039062 0.960938 -2.988281 1.046875 -2.9375 C 1.128906 -2.894531 1.332031 -2.828125 1.65625 -2.734375 C 2.082031 -2.597656 2.378906 -2.441406 2.546875 -2.265625 C 2.722656 -2.097656 2.832031 -1.875 2.875 -1.59375 Z M 2.875 -1.59375 "/></g></g><g transform="translate(58.792604, 82.147733)"><g><path d="M 4.015625 -0.546875 L 3.109375 -0.4375 L 2.859375 -2.265625 L 1.1875 -2.03125 L 1.4375 -0.203125 L 0.546875 -0.078125 L -0.046875 -4.3125 L 0.84375 -4.4375 L 1.078125 -2.78125 L 2.75 -3.015625 L 2.515625 -4.671875 L 3.421875 -4.78125 Z M 4.015625 -0.546875 "/></g></g><g transform="translate(63.340213, 81.519335)"><g><path d="M 4.078125 -2.734375 C 4.179688 -2.023438 4.085938 -1.457031 3.796875 -1.03125 C 3.503906 -0.613281 3.035156 -0.359375 2.390625 -0.265625 C 1.734375 -0.171875 1.203125 -0.285156 0.796875 -0.609375 C 0.398438 -0.941406 0.148438 -1.46875 0.046875 -2.1875 C -0.046875 -2.882812 0.0507812 -3.441406 0.34375 -3.859375 C 0.644531 -4.273438 1.125 -4.53125 1.78125 -4.625 C 2.425781 -4.71875 2.945312 -4.601562 3.34375 -4.28125 C 3.738281 -3.957031 3.984375 -3.441406 4.078125 -2.734375 Z M 0.984375 -2.296875 C 1.046875 -1.828125 1.1875 -1.484375 1.40625 -1.265625 C 1.625 -1.054688 1.914062 -0.976562 2.28125 -1.03125 C 2.988281 -1.125 3.273438 -1.644531 3.140625 -2.59375 C 3.015625 -3.550781 2.597656 -3.984375 1.890625 -3.890625 C 1.535156 -3.835938 1.28125 -3.675781 1.125 -3.40625 C 0.96875 -3.132812 0.921875 -2.765625 0.984375 -2.296875 Z M 0.984375 -2.296875 "/></g></g><g transform="translate(68.070655, 80.865673)"><g><path d="M 1.125 -2.453125 L 1.421875 -2.484375 C 1.703125 -2.523438 1.898438 -2.609375 2.015625 -2.734375 C 2.128906 -2.859375 2.171875 -3.03125 2.140625 -3.25 C 2.117188 -3.457031 2.046875 -3.601562 1.921875 -3.6875 C 1.796875 -3.78125 1.609375 -3.804688 1.359375 -3.765625 L 0.953125 -3.71875 Z M 3.0625 -3.40625 C 3.125 -2.945312 3.03125 -2.578125 2.78125 -2.296875 C 2.53125 -2.015625 2.144531 -1.835938 1.625 -1.765625 L 1.234375 -1.71875 L 1.4375 -0.203125 L 0.546875 -0.078125 L -0.046875 -4.3125 L 1.296875 -4.5 C 1.804688 -4.570312 2.210938 -4.515625 2.515625 -4.328125 C 2.816406 -4.148438 3 -3.84375 3.0625 -3.40625 Z M 3.0625 -3.40625 "/></g></g></g></svg>