<svg xmlns="http://www.w3.org/2000/svg" xmlns:xlink="http://www.w3.org/1999/xlink" width="145" zoomAndPan="magnify" viewBox="0 0 108.75 50.249999" height="67" preserveAspectRatio="xMidYMid meet" version="1.0"><defs><g/><clipPath id="9b5bb6be3c"><path d="M 98 17 L 107.828125 17 L 107.828125 32 L 98 32 Z M 98 17 " clip-rule="nonzero"/></clipPath><clipPath id="63c1743e8e"><path d="M 82 17.058594 L 97.488281 17.058594 L 97.488281 32.613281 L 82 32.613281 Z M 82 17.058594 " clip-rule="nonzero"/></clipPath></defs><g fill="#161719" fill-opacity="1"><g transform="translate(1.132949, 31.655476)"><g><path d="M 0.078125 -13.765625 L 2.203125 -13.765625 L 4.484375 -2.984375 L 6.9375 -13.484375 L 9.203125 -13.484375 L 11.671875 -2.984375 L 13.953125 -13.765625 L 16.078125 -13.765625 L 12.828125 0 L 10.578125 0 L 8.0625 -10.453125 L 5.578125 0 L 3.328125 0 Z M 0.078125 -13.765625 "/></g></g></g><g fill="#161719" fill-opacity="1"><g transform="translate(17.287917, 31.655476)"><g><path d="M 7.328125 -3.53125 L 3.21875 -3.53125 L 2.203125 0 L 0.078125 0 L 4.28125 -13.765625 L 6.296875 -13.765625 L 10.5 0 L 8.375 0 Z M 6.78125 -5.4375 L 5.28125 -10.59375 L 3.78125 -5.4375 Z M 6.78125 -5.4375 "/></g></g></g><g fill="#161719" fill-opacity="1"><g transform="translate(27.861347, 31.655476)"><g><path d="M 3.65625 -11.875 L 0.28125 -11.875 L 0.28125 -13.765625 L 9.078125 -13.765625 L 9.078125 -11.875 L 5.703125 -11.875 L 5.703125 0 L 3.65625 0 Z M 3.65625 -11.875 "/></g></g></g><g fill="#161719" fill-opacity="1"><g transform="translate(37.21628, 31.655476)"><g><path d="M 6.78125 0.28125 C 5.5625 0.28125 4.484375 -0.0078125 3.546875 -0.59375 C 2.617188 -1.175781 1.894531 -2.007812 1.375 -3.09375 C 0.851562 -4.175781 0.59375 -5.4375 0.59375 -6.875 C 0.59375 -8.300781 0.859375 -9.554688 1.390625 -10.640625 C 1.921875 -11.734375 2.65625 -12.570312 3.59375 -13.15625 C 4.53125 -13.738281 5.585938 -14.03125 6.765625 -14.03125 C 7.847656 -14.03125 8.851562 -13.828125 9.78125 -13.421875 L 9.546875 -11.421875 C 9.128906 -11.628906 8.726562 -11.785156 8.34375 -11.890625 C 7.957031 -11.992188 7.539062 -12.046875 7.09375 -12.046875 C 5.757812 -12.046875 4.722656 -11.570312 3.984375 -10.625 C 3.242188 -9.675781 2.875 -8.425781 2.875 -6.875 C 2.875 -5.332031 3.242188 -4.082031 3.984375 -3.125 C 4.722656 -2.175781 5.757812 -1.703125 7.09375 -1.703125 C 7.90625 -1.703125 8.722656 -1.898438 9.546875 -2.296875 L 9.78125 -0.3125 C 8.9375 0.0820312 7.9375 0.28125 6.78125 0.28125 Z M 6.78125 0.28125 "/></g></g></g><g fill="#161719" fill-opacity="1"><g transform="translate(47.514568, 31.655476)"><g><path d="M 1.296875 -13.765625 L 3.359375 -13.765625 L 3.359375 -8.171875 L 9.140625 -8.171875 L 9.140625 -13.765625 L 11.203125 -13.765625 L 11.203125 0 L 9.140625 0 L 9.140625 -6.15625 L 3.359375 -6.15625 L 3.359375 0 L 1.296875 0 Z M 1.296875 -13.765625 "/></g></g></g><g fill="#161719" fill-opacity="1"><g transform="translate(60.014018, 31.655476)"><g><path d="M 4.640625 0.28125 C 3.972656 0.28125 3.285156 0.203125 2.578125 0.046875 C 1.878906 -0.0976562 1.296875 -0.289062 0.828125 -0.53125 L 1.078125 -2.8125 C 2.328125 -2.070312 3.570312 -1.703125 4.8125 -1.703125 C 5.550781 -1.703125 6.125 -1.847656 6.53125 -2.140625 C 6.945312 -2.441406 7.15625 -2.875 7.15625 -3.4375 C 7.15625 -4.039062 6.941406 -4.53125 6.515625 -4.90625 C 6.085938 -5.289062 5.335938 -5.71875 4.265625 -6.1875 C 3.441406 -6.550781 2.78125 -6.90625 2.28125 -7.25 C 1.78125 -7.59375 1.390625 -8.003906 1.109375 -8.484375 C 0.835938 -8.972656 0.703125 -9.566406 0.703125 -10.265625 C 0.703125 -11.003906 0.890625 -11.660156 1.265625 -12.234375 C 1.648438 -12.804688 2.1875 -13.25 2.875 -13.5625 C 3.5625 -13.875 4.363281 -14.03125 5.28125 -14.03125 C 6.53125 -14.03125 7.691406 -13.773438 8.765625 -13.265625 L 8.546875 -11.09375 C 7.378906 -11.726562 6.238281 -12.046875 5.125 -12.046875 C 4.4375 -12.046875 3.898438 -11.90625 3.515625 -11.625 C 3.140625 -11.351562 2.953125 -10.929688 2.953125 -10.359375 C 2.953125 -9.953125 3.0625 -9.609375 3.28125 -9.328125 C 3.5 -9.054688 3.789062 -8.816406 4.15625 -8.609375 C 4.53125 -8.410156 5.125 -8.125 5.9375 -7.75 C 7.125 -7.1875 7.992188 -6.59375 8.546875 -5.96875 C 9.097656 -5.34375 9.375 -4.550781 9.375 -3.59375 C 9.375 -2.40625 8.953125 -1.460938 8.109375 -0.765625 C 7.273438 -0.0664062 6.117188 0.28125 4.640625 0.28125 Z M 4.640625 0.28125 "/></g></g></g><g fill="#161719" fill-opacity="1"><g transform="translate(69.879951, 31.655476)"><g><path d="M 1.296875 -13.765625 L 3.359375 -13.765625 L 3.359375 -8.171875 L 9.140625 -8.171875 L 9.140625 -13.765625 L 11.203125 -13.765625 L 11.203125 0 L 9.140625 0 L 9.140625 -6.15625 L 3.359375 -6.15625 L 3.359375 0 L 1.296875 0 Z M 1.296875 -13.765625 "/></g></g></g><g fill="#161719" fill-opacity="1"><g transform="translate(82.355511, 31.655476)"><g/></g></g><g fill="#161719" fill-opacity="1"><g transform="translate(86.168241, 31.655476)"><g/></g></g><g fill="#161719" fill-opacity="1"><g transform="translate(89.980971, 31.655476)"><g/></g></g><g fill="#161719" fill-opacity="1"><g transform="translate(93.793702, 31.655476)"><g/></g></g><g clip-path="url(#9b5bb6be3c)"><g fill="#161719" fill-opacity="1"><g transform="translate(97.581542, 31.655476)"><g><path d="M 1.34375 -13.765625 L 5.078125 -13.765625 C 6.515625 -13.765625 7.640625 -13.378906 8.453125 -12.609375 C 9.265625 -11.835938 9.671875 -10.722656 9.671875 -9.265625 C 9.671875 -7.773438 9.265625 -6.644531 8.453125 -5.875 C 7.640625 -5.113281 6.515625 -4.734375 5.078125 -4.734375 L 3.40625 -4.734375 L 3.40625 0 L 1.34375 0 Z M 4.890625 -6.578125 C 5.785156 -6.578125 6.445312 -6.796875 6.875 -7.234375 C 7.3125 -7.679688 7.53125 -8.359375 7.53125 -9.265625 C 7.53125 -11.046875 6.648438 -11.9375 4.890625 -11.9375 L 3.40625 -11.9375 L 3.40625 -6.578125 Z M 4.890625 -6.578125 "/></g></g></g></g><g clip-path="url(#63c1743e8e)"><path fill="#000000" d="M 90.007812 17.0625 C 89.515625 17.0625 89.03125 17.109375 88.546875 17.207031 C 88.066406 17.300781 87.597656 17.445312 87.144531 17.632812 C 86.691406 17.820312 86.261719 18.050781 85.851562 18.324219 C 85.445312 18.597656 85.066406 18.90625 84.71875 19.253906 C 84.371094 19.601562 84.0625 19.976562 83.789062 20.386719 C 83.515625 20.792969 83.285156 21.226562 83.097656 21.679688 C 82.910156 22.132812 82.769531 22.601562 82.671875 23.082031 C 82.578125 23.5625 82.53125 24.050781 82.53125 24.539062 C 82.53125 25.03125 82.578125 25.515625 82.671875 26 C 82.769531 26.480469 82.910156 26.949219 83.097656 27.402344 C 83.285156 27.855469 83.515625 28.285156 83.789062 28.695312 C 84.0625 29.101562 84.371094 29.480469 84.71875 29.828125 C 85.066406 30.175781 85.445312 30.484375 85.851562 30.757812 C 86.261719 31.03125 86.691406 31.261719 87.144531 31.449219 C 87.597656 31.636719 88.066406 31.777344 88.546875 31.875 C 89.03125 31.96875 89.515625 32.015625 90.007812 32.015625 C 90.496094 32.015625 90.984375 31.96875 91.464844 31.875 C 91.945312 31.777344 92.414062 31.636719 92.867188 31.449219 C 93.320312 31.261719 93.753906 31.03125 94.160156 30.757812 C 94.570312 30.484375 94.945312 30.175781 95.292969 29.828125 C 95.640625 29.480469 95.949219 29.101562 96.222656 28.695312 C 96.496094 28.285156 96.726562 27.855469 96.914062 27.402344 C 97.101562 26.949219 97.246094 26.480469 97.339844 26 C 97.4375 25.515625 97.484375 25.03125 97.484375 24.539062 C 97.484375 24.050781 97.433594 23.5625 97.339844 23.082031 C 97.242188 22.601562 97.101562 22.132812 96.914062 21.679688 C 96.722656 21.226562 96.492188 20.796875 96.222656 20.386719 C 95.949219 19.980469 95.636719 19.601562 95.292969 19.253906 C 94.945312 18.910156 94.566406 18.597656 94.160156 18.324219 C 93.75 18.054688 93.320312 17.824219 92.867188 17.632812 C 92.414062 17.445312 91.945312 17.304688 91.464844 17.207031 C 90.984375 17.113281 90.496094 17.0625 90.007812 17.0625 Z M 90.007812 31.359375 C 89.558594 31.359375 89.117188 31.316406 88.675781 31.226562 C 88.238281 31.140625 87.8125 31.011719 87.398438 30.839844 C 86.984375 30.667969 86.589844 30.457031 86.21875 30.210938 C 85.847656 29.960938 85.503906 29.679688 85.1875 29.363281 C 84.871094 29.042969 84.585938 28.699219 84.335938 28.328125 C 84.089844 27.957031 83.878906 27.5625 83.707031 27.148438 C 83.535156 26.734375 83.40625 26.308594 83.320312 25.871094 C 83.230469 25.429688 83.1875 24.988281 83.1875 24.539062 C 83.1875 24.09375 83.230469 23.648438 83.320312 23.210938 C 83.40625 22.769531 83.535156 22.34375 83.707031 21.929688 C 83.878906 21.515625 84.089844 21.125 84.335938 20.753906 C 84.585938 20.378906 84.867188 20.035156 85.1875 19.71875 C 85.503906 19.402344 85.847656 19.121094 86.21875 18.871094 C 86.589844 18.621094 86.984375 18.414062 87.398438 18.242188 C 87.8125 18.070312 88.238281 17.941406 88.675781 17.851562 C 89.117188 17.765625 89.558594 17.722656 90.007812 17.722656 C 90.453125 17.722656 90.898438 17.765625 91.335938 17.851562 C 91.777344 17.941406 92.203125 18.070312 92.617188 18.242188 C 93.03125 18.414062 93.421875 18.621094 93.792969 18.871094 C 94.167969 19.121094 94.511719 19.402344 94.828125 19.71875 C 95.144531 20.035156 95.425781 20.378906 95.675781 20.753906 C 95.925781 21.125 96.132812 21.515625 96.304688 21.929688 C 96.476562 22.34375 96.605469 22.769531 96.695312 23.210938 C 96.78125 23.648438 96.824219 24.09375 96.824219 24.539062 C 96.824219 24.988281 96.78125 25.429688 96.691406 25.871094 C 96.605469 26.308594 96.476562 26.734375 96.304688 27.148438 C 96.132812 27.5625 95.921875 27.953125 95.671875 28.328125 C 95.425781 28.699219 95.140625 29.042969 94.824219 29.359375 C 94.507812 29.675781 94.164062 29.957031 93.792969 30.207031 C 93.421875 30.457031 93.027344 30.664062 92.613281 30.835938 C 92.203125 31.007812 91.777344 31.136719 91.335938 31.226562 C 90.898438 31.3125 90.453125 31.359375 90.007812 31.359375 Z M 90.007812 31.359375 " fill-opacity="1" fill-rule="nonzero"/></g><path fill="#000000" d="M 90.335938 24.617188 L 90.335938 19.734375 C 90.335938 19.640625 90.304688 19.5625 90.238281 19.5 C 90.175781 19.433594 90.097656 19.402344 90.007812 19.402344 C 89.914062 19.402344 89.839844 19.433594 89.773438 19.5 C 89.710938 19.5625 89.675781 19.640625 89.675781 19.734375 L 89.675781 24.753906 C 89.675781 24.84375 89.710938 24.921875 89.773438 24.984375 L 92.625 27.835938 C 92.6875 27.902344 92.765625 27.933594 92.859375 27.933594 C 92.949219 27.933594 93.027344 27.902344 93.089844 27.835938 C 93.15625 27.773438 93.1875 27.695312 93.1875 27.605469 C 93.1875 27.511719 93.15625 27.433594 93.089844 27.371094 Z M 90.335938 24.617188 " fill-opacity="1" fill-rule="nonzero"/></svg>